<svg width="1584" height="396" viewBox="0 0 1584 396" fill="none" xmlns="http://www.w3.org/2000/svg">
<rect width="1584" height="396" fill="#F5F5F5"/>
<g id="Awesome banner" clip-path="url(#clip0_0_1)">
<rect width="1584" height="396" fill="url(#paint0_linear_0_1)"/>
<ellipse id="Ellipse 2" cx="323" cy="64" rx="285" ry="288" fill="url(#paint1_linear_0_1)" fill-opacity="0.1"/>
<g id="copyright">
<path d="M75.95 334.52L72.30 334.52L72.30 311.16L77.20 311.16L83.70 330.04Q83.60 329.02 83.50 327.62Q83.41 326.23 83.33 324.79Q83.25 323.35 83.25 322.23L83.25 311.16L86.90 311.16L86.90 334.52L82 334.52L75.57 315.64Q75.63 316.57 75.73 317.88Q75.82 319.19 75.89 320.57Q75.95 321.94 75.95 323.10L75.95 334.52M98.80 334.84Q96.46 334.84 94.67 333.96Q92.88 333.08 91.89 331.53Q90.90 329.98 90.90 327.93Q90.90 325.78 92.13 324.18Q93.36 322.58 95.34 322.17L95.34 322.10Q93.65 321.75 92.61 320.38Q91.57 319 91.57 317.11Q91.57 315.26 92.48 313.85Q93.39 312.44 95.02 311.64Q96.66 310.84 98.80 310.84Q100.94 310.84 102.59 311.64Q104.24 312.44 105.15 313.85Q106.06 315.26 106.06 317.11Q106.06 319 105.01 320.38Q103.95 321.75 102.26 322.10L102.26 322.17Q104.24 322.58 105.47 324.18Q106.70 325.78 106.70 327.93Q106.70 329.98 105.71 331.53Q104.72 333.08 102.93 333.96Q101.14 334.84 98.80 334.84M98.80 320.73Q100.30 320.73 101.23 319.82Q102.16 318.90 102.16 317.46Q102.16 315.99 101.23 315.08Q100.30 314.17 98.80 314.17Q97.30 314.17 96.37 315.08Q95.44 315.99 95.44 317.46Q95.44 318.90 96.37 319.82Q97.30 320.73 98.80 320.73M98.80 331.45Q100.56 331.45 101.68 330.42Q102.80 329.40 102.80 327.74Q102.80 326.04 101.68 325Q100.56 323.96 98.80 323.96Q97.04 323.96 95.92 325Q94.80 326.04 94.80 327.74Q94.80 329.40 95.92 330.42Q97.04 331.45 98.80 331.45M114.35 334.52L110.70 334.52L110.70 311.16L115.60 311.16L122.10 330.04Q122 329.02 121.90 327.62Q121.81 326.23 121.73 324.79Q121.65 323.35 121.65 322.23L121.65 311.16L125.30 311.16L125.30 334.52L120.40 334.52L113.97 315.64Q114.03 316.57 114.13 317.88Q114.22 319.19 114.29 320.57Q114.35 321.94 114.35 323.10" fill="white" fill-opacity="0.9"/>
<path d="M161.48 325.24L151.24 325.24L151.24 322.68L161.48 322.68" fill="white" fill-opacity="0.9"/>
<path d="M195.02 334.84Q191.82 334.84 189.96 333.05Q188.11 331.26 188.11 328.12L188.11 317.56Q188.11 314.42 189.96 312.63Q191.82 310.84 195.02 310.84Q198.15 310.84 200.01 312.65Q201.87 314.46 201.87 317.56L198.99 317.56Q198.99 315.58 197.95 314.50Q196.91 313.43 195.02 313.43Q193.13 313.43 192.06 314.50Q190.99 315.58 190.99 317.56L190.99 328.12Q190.99 330.10 192.06 331.18Q193.13 332.25 195.02 332.25Q196.91 332.25 197.95 331.18Q198.99 330.10 198.99 328.12L201.87 328.12Q201.87 331.22 200.01 333.03Q198.15 334.84 195.02 334.84" fill="white" fill-opacity="0.9"/>
<path d="M213.96 334.84Q210.83 334.84 209 333.02Q207.18 331.19 207.18 327.80L207.18 317.88Q207.18 314.49 209 312.66Q210.83 310.84 213.96 310.84Q217.10 310.84 218.92 312.66Q220.75 314.49 220.75 317.85L220.75 327.80Q220.75 331.19 218.92 333.02Q217.10 334.84 213.96 334.84M213.96 332.25Q215.85 332.25 216.86 331.18Q217.87 330.10 217.87 328.12L217.87 317.56Q217.87 315.58 216.86 314.50Q215.85 313.43 213.96 313.43Q212.11 313.43 211.08 314.50Q210.06 315.58 210.06 317.56L210.06 328.12Q210.06 330.10 211.08 331.18Q212.11 332.25 213.96 332.25" fill="white" fill-opacity="0.9"/>
<path d="M228.65 334.52L225.87 334.52L225.87 311.16L230.12 311.16L233.10 321.27L236.20 311.16L240.46 311.16L240.46 334.52L237.67 334.52L237.67 323.48Q237.67 321.91 237.72 319.88Q237.77 317.85 237.87 315.77Q237.96 313.69 238.09 312.02L234.31 324.09L231.82 324.09L228.20 312.31Q228.46 314.68 228.55 317.50Q228.65 320.31 228.65 323.48" fill="white" fill-opacity="0.9"/>
<path d="M247.85 334.52L245.07 334.52L245.07 311.16L249.32 311.16L252.30 321.27L255.40 311.16L259.66 311.16L259.66 334.52L256.87 334.52L256.87 323.48Q256.87 321.91 256.92 319.88Q256.97 317.85 257.07 315.77Q257.16 313.69 257.29 312.02L253.51 324.09L251.02 324.09L247.40 312.31Q247.66 314.68 247.75 317.50Q247.85 320.31 247.85 323.48" fill="white" fill-opacity="0.9"/>
<path d="M271.56 334.84Q268.30 334.84 266.57 333.03Q264.84 331.22 264.84 328.12L264.84 311.16L267.72 311.16L267.72 328.12Q267.72 330.04 268.67 331.16Q269.61 332.28 271.56 332.28Q273.48 332.28 274.44 331.16Q275.40 330.04 275.40 328.12L275.40 311.16L278.28 311.16L278.28 328.12Q278.28 331.26 276.57 333.05Q274.86 334.84 271.56 334.84" fill="white" fill-opacity="0.9"/>
<path d="M286.83 334.52L284.04 334.52L284.04 311.16L287.88 311.16L295.02 331.16Q294.95 330.36 294.87 329.19Q294.79 328.02 294.75 326.73Q294.70 325.43 294.70 324.28L294.70 311.16L297.48 311.16L297.48 334.52L293.64 334.52L286.54 314.52Q286.60 315.29 286.67 316.46Q286.73 317.62 286.78 318.92Q286.83 320.22 286.83 321.40" fill="white" fill-opacity="0.9"/>
<path d="M316.20 334.52L303.72 334.52L303.72 331.90L308.49 331.90L308.49 313.78L303.72 313.78L303.72 311.16L316.20 311.16L316.20 313.78L311.43 313.78L311.43 331.90L316.20 331.90" fill="white" fill-opacity="0.9"/>
<path d="M330.60 334.52L327.72 334.52L327.72 313.78L321.32 313.78L321.32 311.16L337 311.16L337 313.78L330.60 313.78" fill="white" fill-opacity="0.9"/>
<path d="M349.80 334.52L346.92 334.52L346.92 325.78L339.88 311.16L342.95 311.16L347.50 320.76Q347.88 321.56 348.11 322.12Q348.33 322.68 348.39 322.94Q348.46 322.68 348.70 322.12Q348.94 321.56 349.32 320.76L353.87 311.16L356.84 311.16L349.80 325.78" fill="white" fill-opacity="0.9"/>
<path d="M382.83 334.52L380.04 334.52L380.04 311.16L383.88 311.16L391.02 331.16Q390.95 330.36 390.87 329.19Q390.79 328.02 390.75 326.73Q390.70 325.43 390.70 324.28L390.70 311.16L393.48 311.16L393.48 334.52L389.64 334.52L382.54 314.52Q382.60 315.29 382.67 316.46Q382.73 317.62 382.78 318.92Q382.83 320.22 382.83 321.40" fill="white" fill-opacity="0.9"/>
<path d="M405.96 334.84Q402.83 334.84 401 333.02Q399.18 331.19 399.18 327.80L399.18 317.88Q399.18 314.49 401 312.66Q402.83 310.84 405.96 310.84Q409.10 310.84 410.92 312.66Q412.75 314.49 412.75 317.85L412.75 327.80Q412.75 331.19 410.92 333.02Q409.10 334.84 405.96 334.84M405.96 332.25Q407.85 332.25 408.86 331.18Q409.87 330.10 409.87 328.12L409.87 317.56Q409.87 315.58 408.86 314.50Q407.85 313.43 405.96 313.43Q404.11 313.43 403.08 314.50Q402.06 315.58 402.06 317.56L402.06 328.12Q402.06 330.10 403.08 331.18Q404.11 332.25 405.96 332.25" fill="white" fill-opacity="0.9"/>
<path d="M424.55 334.52L418.51 334.52L418.51 311.16L424.55 311.16Q426.83 311.16 428.47 312.02Q430.12 312.89 431.03 314.46Q431.95 316.02 431.95 318.17L431.95 327.48Q431.95 329.62 431.03 331.21Q430.12 332.79 428.47 333.66Q426.83 334.52 424.55 334.52M421.39 313.72L421.39 331.96L424.55 331.96Q426.67 331.96 427.87 330.78Q429.07 329.59 429.07 327.48L429.07 318.17Q429.07 316.09 427.87 314.90Q426.67 313.72 424.55 313.72" fill="white" fill-opacity="0.9"/>
<path d="M451.40 334.52L437.96 334.52L437.96 311.16L451.40 311.16L451.40 313.78L440.81 313.78L440.81 321.02L450.28 321.02L450.28 323.58L440.81 323.58L440.81 331.90L451.40 331.90" fill="white" fill-opacity="0.9"/>
<path d="M463.69 334.84Q460.30 334.84 458.28 333.05Q456.27 331.26 456.27 328.12L459.15 328.12Q459.15 330.07 460.39 331.18Q461.64 332.28 463.69 332.28Q465.67 332.28 466.86 331.13Q468.04 329.98 468.04 328.12Q468.04 326.71 467.29 325.67Q466.54 324.63 465.13 324.25L461.58 323.26Q459.37 322.62 458.11 320.97Q456.84 319.32 456.84 317.08Q456.84 315.22 457.67 313.82Q458.51 312.41 460.01 311.62Q461.51 310.84 463.47 310.84Q465.45 310.84 466.97 311.62Q468.49 312.41 469.35 313.80Q470.22 315.19 470.22 317.02L467.34 317.02Q467.34 315.42 466.25 314.41Q465.16 313.40 463.47 313.40Q461.77 313.40 460.71 314.41Q459.66 315.42 459.66 317.02Q459.66 318.30 460.35 319.21Q461.03 320.12 462.28 320.47L465.93 321.50Q468.27 322.14 469.56 323.91Q470.86 325.69 470.86 328.12Q470.86 331.19 468.91 333.02Q466.95 334.84 463.69 334.84" fill="white" fill-opacity="0.9"/>
</g>
<path d="M77.56 197.64L72.23 197.64L72.23 180.12L77.20 180.12Q79.60 180.12 80.96 181.32Q82.31 182.52 82.31 184.66Q82.31 186 81.46 187.08Q80.61 188.16 79.24 188.42L79.24 188.50Q80.27 188.62 81.05 189.22Q81.83 189.82 82.28 190.74Q82.72 191.66 82.72 192.77Q82.72 195.02 81.34 196.33Q79.96 197.64 77.56 197.64M74.34 182.06L74.34 187.58L77.18 187.58Q78.57 187.58 79.37 186.84Q80.18 186.10 80.18 184.82Q80.18 183.55 79.38 182.81Q78.59 182.06 77.20 182.06L74.34 182.06M74.34 189.46L74.34 195.70L77.32 195.70Q78.83 195.70 79.71 194.89Q80.58 194.09 80.58 192.70Q80.58 191.26 79.71 190.36Q78.83 189.46 77.32 189.46" fill="white" fill-opacity="0.7"/>
<path d="M88.77 197.64L86.61 197.64L86.61 180.12L92.25 180.12Q94.70 180.12 96.15 181.52Q97.60 182.93 97.60 185.28Q97.60 187.63 96.15 189.04Q94.70 190.44 92.25 190.44L88.77 190.44L88.77 197.64M88.77 182.06L88.77 188.50L92.25 188.50Q93.66 188.50 94.52 187.62Q95.37 186.74 95.37 185.28Q95.37 183.79 94.52 182.93Q93.66 182.06 92.25 182.06" fill="white" fill-opacity="0.7"/>
<path d="M106.19 197.88Q103.79 197.88 102.40 196.54Q101.01 195.19 101.01 192.84L101.01 184.92Q101.01 182.57 102.40 181.22Q103.79 179.88 106.19 179.88Q108.54 179.88 109.94 181.24Q111.33 182.59 111.33 184.92L109.17 184.92Q109.17 183.43 108.39 182.63Q107.61 181.82 106.19 181.82Q104.78 181.82 103.97 182.63Q103.17 183.43 103.17 184.92L103.17 192.84Q103.17 194.33 103.97 195.13Q104.78 195.94 106.19 195.94Q107.61 195.94 108.39 195.13Q109.17 194.33 109.17 192.84L111.33 192.84Q111.33 195.17 109.94 196.52Q108.54 197.88 106.19 197.88" fill="white" fill-opacity="0.7"/>
<path d="M126.40 197.64L116.32 197.64L116.32 180.12L118.48 180.12L118.48 195.67L126.40 195.67" fill="white" fill-opacity="0.7"/>
<path d="M149.20 197.88Q146.87 197.88 145.44 196.48Q144.02 195.07 144.02 192.60L144.02 189.48Q144.02 187.01 145.44 185.60Q146.87 184.20 149.20 184.20Q150.76 184.20 151.92 184.82Q153.09 185.45 153.74 186.58Q154.38 187.70 154.38 189.24L154.38 191.59L146.13 191.59L146.13 192.84Q146.13 194.30 146.97 195.16Q147.81 196.01 149.20 196.01Q150.40 196.01 151.18 195.54Q151.96 195.07 152.13 194.28L154.29 194.28Q154.07 195.94 152.68 196.91Q151.29 197.88 149.20 197.88M146.13 189.24L146.13 189.91L152.27 189.91L152.27 189.24Q152.27 187.68 151.47 186.83Q150.66 185.98 149.20 185.98Q147.74 185.98 146.93 186.83Q146.13 187.68 146.13 189.24" fill="white" fill-opacity="0.7"/>
<path d="M163.70 197.88Q161.15 197.88 159.64 196.54Q158.13 195.19 158.13 192.84L160.29 192.84Q160.29 194.30 161.22 195.13Q162.16 195.96 163.70 195.96Q165.18 195.96 166.07 195.10Q166.96 194.23 166.96 192.84Q166.96 191.78 166.40 191Q165.83 190.22 164.78 189.94L162.11 189.19Q160.46 188.71 159.51 187.48Q158.56 186.24 158.56 184.56Q158.56 183.17 159.18 182.11Q159.81 181.06 160.94 180.47Q162.06 179.88 163.53 179.88Q165.02 179.88 166.16 180.47Q167.30 181.06 167.94 182.10Q168.59 183.14 168.59 184.51L166.43 184.51Q166.43 183.31 165.62 182.56Q164.80 181.80 163.53 181.80Q162.26 181.80 161.46 182.56Q160.67 183.31 160.67 184.51Q160.67 185.47 161.19 186.16Q161.70 186.84 162.64 187.10L165.38 187.87Q167.13 188.35 168.10 189.68Q169.07 191.02 169.07 192.84Q169.07 195.14 167.61 196.51Q166.14 197.88 163.70 197.88" fill="white" fill-opacity="0.7"/>
<path d="M177.98 197.88Q175.70 197.88 174.33 196.52Q172.96 195.17 172.96 192.84L172.96 184.44L175.12 184.44L175.12 192.84Q175.12 194.28 175.89 195.13Q176.66 195.98 177.98 195.98Q179.32 195.98 180.10 195.13Q180.88 194.28 180.88 192.84L180.88 184.44L183.04 184.44L183.04 192.84Q183.04 195.17 181.65 196.52Q180.26 197.88 177.98 197.88" fill="white" fill-opacity="0.7"/>
<path d="M193.17 197.88Q191.68 197.88 190.72 197.15Q189.76 196.42 189.59 195.12L189.57 195.12L189.57 197.64L187.41 197.64L187.41 180.12L189.57 180.12L189.57 183.96L189.52 186.96L189.54 186.96Q189.74 185.69 190.71 184.94Q191.68 184.20 193.17 184.20Q195.16 184.20 196.34 185.52Q197.51 186.84 197.51 189.12L197.51 192.98Q197.51 195.24 196.34 196.56Q195.16 197.88 193.17 197.88M192.45 196.01Q193.82 196.01 194.58 195.29Q195.35 194.57 195.35 192.96L195.35 189.12Q195.35 187.49 194.58 186.78Q193.82 186.07 192.45 186.07Q191.13 186.07 190.35 186.91Q189.57 187.75 189.57 189.24L189.57 192.84Q189.57 194.33 190.35 195.17Q191.13 196.01 192.45 196.01" fill="white" fill-opacity="0.7"/>
<path d="M207.33 197.83L206.27 197.83Q204.06 197.83 202.85 196.84Q201.64 195.84 201.64 194.02L203.80 194.02Q203.80 194.93 204.45 195.44Q205.10 195.96 206.27 195.96L207.33 195.96Q208.53 195.96 209.19 195.43Q209.85 194.90 209.85 193.94Q209.85 192.24 208.29 192.02L204.64 191.50Q203.30 191.30 202.55 190.38Q201.81 189.46 201.81 187.94Q201.81 186.22 203 185.23Q204.18 184.25 206.27 184.25L207.33 184.25Q209.25 184.25 210.46 185.20Q211.67 186.14 211.77 187.68L209.58 187.68Q209.54 186.98 208.92 186.53Q208.31 186.07 207.33 186.07L206.27 186.07Q205.17 186.07 204.54 186.58Q203.92 187.08 203.92 187.94Q203.92 189.34 205.19 189.53L208.60 190.01Q211.96 190.49 211.96 193.94Q211.96 195.79 210.75 196.81Q209.54 197.83 207.33 197.83" fill="white" fill-opacity="0.7"/>
<path d="M221.39 197.88Q218.99 197.88 217.55 196.54Q216.11 195.19 216.11 192.84L216.11 189.24Q216.11 186.89 217.55 185.54Q218.99 184.20 221.39 184.20Q223.67 184.20 225.08 185.42Q226.48 186.65 226.55 188.76L224.39 188.76Q224.32 187.49 223.53 186.80Q222.74 186.12 221.39 186.12Q219.98 186.12 219.12 186.92Q218.27 187.73 218.27 189.22L218.27 192.84Q218.27 194.33 219.12 195.14Q219.98 195.96 221.39 195.96Q222.74 195.96 223.53 195.26Q224.32 194.57 224.39 193.32L226.55 193.32Q226.48 195.43 225.08 196.66Q223.67 197.88 221.39 197.88" fill="white" fill-opacity="0.7"/>
<path d="M233.25 197.64L231.09 197.64L231.09 184.44L233.25 184.44L233.25 186.96L233.30 186.96Q233.46 185.69 234.38 184.94Q235.29 184.20 236.82 184.20Q238.89 184.20 240 185.44Q241.12 186.67 241.12 188.95L241.12 190.08L238.96 190.08L238.96 188.95Q238.96 186.07 236.15 186.07Q234.74 186.07 233.99 186.89Q233.25 187.70 233.25 189.24" fill="white" fill-opacity="0.7"/>
<path d="M256.12 197.64L244.84 197.64L244.84 195.67L249.52 195.67L249.52 186.41L245.32 186.41L245.32 184.44L251.68 184.44L251.68 195.67L256.12 195.67L256.12 197.64M250.36 182.06Q249.57 182.06 249.11 181.66Q248.66 181.25 248.66 180.55Q248.66 179.83 249.11 179.41Q249.57 178.99 250.36 178.99Q251.15 178.99 251.61 179.41Q252.06 179.83 252.06 180.55Q252.06 181.25 251.61 181.66Q251.15 182.06 250.36 182.06" fill="white" fill-opacity="0.7"/>
<path d="M261.57 201.96L259.41 201.96L259.41 184.44L261.57 184.44L261.57 186.96L261.59 186.96Q261.76 185.66 262.72 184.93Q263.68 184.20 265.17 184.20Q267.16 184.20 268.34 185.51Q269.51 186.82 269.51 189.10L269.51 192.96Q269.51 195.24 268.34 196.56Q267.16 197.88 265.17 197.88Q263.68 197.88 262.72 197.14Q261.76 196.39 261.59 195.12L261.52 195.12L261.57 198.12L261.57 201.96M264.45 196.01Q265.82 196.01 266.58 195.29Q267.35 194.57 267.35 192.96L267.35 189.12Q267.35 187.49 266.58 186.78Q265.82 186.07 264.45 186.07Q263.13 186.07 262.35 186.91Q261.57 187.75 261.57 189.24L261.57 192.84Q261.57 194.33 262.35 195.17Q263.13 196.01 264.45 196.01" fill="white" fill-opacity="0.7"/>
<path d="M283.96 197.64L280.12 197.64Q278.49 197.64 277.50 196.69Q276.52 195.74 276.52 194.16L276.52 186.41L272.73 186.41L272.73 184.44L276.52 184.44L276.52 180.72L278.68 180.72L278.68 184.44L284.08 184.44L284.08 186.41L278.68 186.41L278.68 194.16Q278.68 194.83 279.08 195.25Q279.47 195.67 280.12 195.67L283.96 195.67" fill="white" fill-opacity="0.7"/>
<path d="M299.32 197.64L288.04 197.64L288.04 195.67L292.72 195.67L292.72 186.41L288.52 186.41L288.52 184.44L294.88 184.44L294.88 195.67L299.32 195.67L299.32 197.64M293.56 182.06Q292.77 182.06 292.31 181.66Q291.86 181.25 291.86 180.55Q291.86 179.83 292.31 179.41Q292.77 178.99 293.56 178.99Q294.35 178.99 294.81 179.41Q295.26 179.83 295.26 180.55Q295.26 181.25 294.81 181.66Q294.35 182.06 293.56 182.06" fill="white" fill-opacity="0.7"/>
<path d="M307.60 197.83Q305.22 197.83 303.82 196.44Q302.42 195.05 302.42 192.55L302.42 189.53Q302.42 187.01 303.81 185.63Q305.20 184.25 307.60 184.25Q310 184.25 311.39 185.63Q312.78 187.01 312.78 189.53L312.78 192.55Q312.78 195.05 311.38 196.44Q309.98 197.83 307.60 197.83M307.60 195.91Q309.02 195.91 309.82 195.12Q310.62 194.33 310.62 192.79L310.62 189.29Q310.62 187.75 309.82 186.96Q309.02 186.17 307.60 186.17Q306.21 186.17 305.39 186.96Q304.58 187.75 304.58 189.29L304.58 192.79Q304.58 194.33 305.39 195.12Q306.21 195.91 307.60 195.91" fill="white" fill-opacity="0.7"/>
<path d="M319.17 197.64L317.01 197.64L317.01 184.44L319.17 184.44L319.17 186.96L319.19 186.96Q319.36 185.64 320.27 184.92Q321.18 184.20 322.70 184.20Q324.69 184.20 325.86 185.42Q327.04 186.65 327.04 188.76L327.04 197.64L324.88 197.64L324.88 189.14Q324.88 187.63 324.12 186.83Q323.37 186.02 322.07 186.02Q320.73 186.02 319.95 186.86Q319.17 187.70 319.17 189.24" fill="white" fill-opacity="0.7"/>
<path d="M352.26 197.64L349.31 197.64L344.80 180.12L347.01 180.12L350.01 192.05Q350.32 193.30 350.52 194.35Q350.73 195.41 350.82 195.96Q350.92 195.41 351.15 194.34Q351.38 193.27 351.69 192.02L354.57 180.12L356.80 180.12" fill="white" fill-opacity="0.7"/>
<path d="M365.20 197.83Q362.82 197.83 361.42 196.44Q360.02 195.05 360.02 192.55L360.02 189.53Q360.02 187.01 361.41 185.63Q362.80 184.25 365.20 184.25Q367.60 184.25 368.99 185.63Q370.38 187.01 370.38 189.53L370.38 192.55Q370.38 195.05 368.98 196.44Q367.58 197.83 365.20 197.83M365.20 195.91Q366.62 195.91 367.42 195.12Q368.22 194.33 368.22 192.79L368.22 189.29Q368.22 187.75 367.42 186.96Q366.62 186.17 365.20 186.17Q363.81 186.17 362.99 186.96Q362.18 187.75 362.18 189.29L362.18 192.79Q362.18 194.33 362.99 195.12Q363.81 195.91 365.20 195.91" fill="white" fill-opacity="0.7"/>
<path d="M379.58 197.88Q377.30 197.88 375.93 196.52Q374.56 195.17 374.56 192.84L374.56 184.44L376.72 184.44L376.72 192.84Q376.72 194.28 377.49 195.13Q378.26 195.98 379.58 195.98Q380.92 195.98 381.70 195.13Q382.48 194.28 382.48 192.84L382.48 184.44L384.64 184.44L384.64 192.84Q384.64 195.17 383.25 196.52Q381.86 197.88 379.58 197.88" fill="white" fill-opacity="0.7"/>
<path d="M394.19 197.88Q391.79 197.88 390.35 196.54Q388.91 195.19 388.91 192.84L388.91 189.24Q388.91 186.89 390.35 185.54Q391.79 184.20 394.19 184.20Q396.47 184.20 397.88 185.42Q399.28 186.65 399.35 188.76L397.19 188.76Q397.12 187.49 396.33 186.80Q395.54 186.12 394.19 186.12Q392.78 186.12 391.92 186.92Q391.07 187.73 391.07 189.22L391.07 192.84Q391.07 194.33 391.92 195.14Q392.78 195.96 394.19 195.96Q395.54 195.96 396.33 195.26Q397.12 194.57 397.19 193.32L399.35 193.32Q399.28 195.43 397.88 196.66Q396.47 197.88 394.19 197.88" fill="white" fill-opacity="0.7"/>
<path d="M405.57 197.64L403.41 197.64L403.41 180.12L405.57 180.12L405.57 186.96L405.59 186.96Q405.76 185.64 406.67 184.92Q407.58 184.20 409.10 184.20Q411.09 184.20 412.26 185.42Q413.44 186.65 413.44 188.76L413.44 197.64L411.28 197.64L411.28 189.12Q411.28 187.63 410.52 186.83Q409.77 186.02 408.47 186.02Q407.13 186.02 406.35 186.86Q405.57 187.70 405.57 189.24" fill="white" fill-opacity="0.7"/>
<path d="M422.80 197.88Q420.47 197.88 419.04 196.48Q417.62 195.07 417.62 192.60L417.62 189.48Q417.62 187.01 419.04 185.60Q420.47 184.20 422.80 184.20Q424.36 184.20 425.52 184.82Q426.69 185.45 427.34 186.58Q427.98 187.70 427.98 189.24L427.98 191.59L419.73 191.59L419.73 192.84Q419.73 194.30 420.57 195.16Q421.41 196.01 422.80 196.01Q424 196.01 424.78 195.54Q425.56 195.07 425.73 194.28L427.89 194.28Q427.67 195.94 426.28 196.91Q424.89 197.88 422.80 197.88M419.73 189.24L419.73 189.91L425.87 189.91L425.87 189.24Q425.87 187.68 425.07 186.83Q424.26 185.98 422.80 185.98Q421.34 185.98 420.53 186.83Q419.73 187.68 419.73 189.24" fill="white" fill-opacity="0.7"/>
<path d="M434.85 197.64L432.69 197.64L432.69 184.44L434.85 184.44L434.85 186.96L434.90 186.96Q435.06 185.69 435.98 184.94Q436.89 184.20 438.42 184.20Q440.49 184.20 441.60 185.44Q442.72 186.67 442.72 188.95L442.72 190.08L440.56 190.08L440.56 188.95Q440.56 186.07 437.75 186.07Q436.34 186.07 435.59 186.89Q434.85 187.70 434.85 189.24" fill="white" fill-opacity="0.7"/>
<path d="M452.13 197.83L451.07 197.83Q448.86 197.83 447.65 196.84Q446.44 195.84 446.44 194.02L448.60 194.02Q448.60 194.93 449.25 195.44Q449.90 195.96 451.07 195.96L452.13 195.96Q453.33 195.96 453.99 195.43Q454.65 194.90 454.65 193.94Q454.65 192.24 453.09 192.02L449.44 191.50Q448.10 191.30 447.35 190.38Q446.61 189.46 446.61 187.94Q446.61 186.22 447.80 185.23Q448.98 184.25 451.07 184.25L452.13 184.25Q454.05 184.25 455.26 185.20Q456.47 186.14 456.57 187.68L454.38 187.68Q454.34 186.98 453.72 186.53Q453.11 186.07 452.13 186.07L451.07 186.07Q449.97 186.07 449.34 186.58Q448.72 187.08 448.72 187.94Q448.72 189.34 449.99 189.53L453.40 190.01Q456.76 190.49 456.76 193.94Q456.76 195.79 455.55 196.81Q454.34 197.83 452.13 197.83" fill="white" fill-opacity="0.7"/>
<path d="M480.52 197.64L478.36 197.64L478.36 188.21L474.52 188.21L474.52 186.24L478.36 186.24L478.36 183.48Q478.36 181.92 479.34 181.02Q480.33 180.12 482.06 180.12L485.92 180.12L485.92 182.09L482.06 182.09Q480.52 182.09 480.52 183.48L480.52 186.24L485.92 186.24L485.92 188.21L480.52 188.21" fill="white" fill-opacity="0.7"/>
<path d="M494.80 197.83Q492.42 197.83 491.02 196.44Q489.62 195.05 489.62 192.55L489.62 189.53Q489.62 187.01 491.01 185.63Q492.40 184.25 494.80 184.25Q497.20 184.25 498.59 185.63Q499.98 187.01 499.98 189.53L499.98 192.55Q499.98 195.05 498.58 196.44Q497.18 197.83 494.80 197.83M494.80 195.91Q496.22 195.91 497.02 195.12Q497.82 194.33 497.82 192.79L497.82 189.29Q497.82 187.75 497.02 186.96Q496.22 186.17 494.80 186.17Q493.41 186.17 492.59 186.96Q491.78 187.75 491.78 189.29L491.78 192.79Q491.78 194.33 492.59 195.12Q493.41 195.91 494.80 195.91" fill="white" fill-opacity="0.7"/>
<path d="M506.85 197.64L504.69 197.64L504.69 184.44L506.85 184.44L506.85 186.96L506.90 186.96Q507.06 185.69 507.98 184.94Q508.89 184.20 510.42 184.20Q512.49 184.20 513.60 185.44Q514.72 186.67 514.72 188.95L514.72 190.08L512.56 190.08L512.56 188.95Q512.56 186.07 509.75 186.07Q508.34 186.07 507.59 186.89Q506.85 187.70 506.85 189.24" fill="white" fill-opacity="0.7"/>
<path d="M544 197.64L533.92 197.64L533.92 180.12L536.08 180.12L536.08 195.67L544 195.67" fill="white" fill-opacity="0.7"/>
<path d="M549.57 197.64L547.41 197.64L547.41 180.12L553.05 180.12Q555.50 180.12 556.95 181.52Q558.40 182.93 558.40 185.28Q558.40 187.63 556.95 189.04Q555.50 190.44 553.05 190.44L549.57 190.44L549.57 197.64M549.57 182.06L549.57 188.50L553.05 188.50Q554.46 188.50 555.32 187.62Q556.17 186.74 556.17 185.28Q556.17 183.79 555.32 182.93Q554.46 182.06 553.05 182.06" fill="white" fill-opacity="0.7"/>
<path d="M566.90 197.88Q564.50 197.88 563.10 196.54Q561.71 195.19 561.71 192.84L561.71 184.92Q561.71 182.57 563.10 181.22Q564.50 179.88 566.90 179.88Q569.25 179.88 570.64 181.24Q572.03 182.59 572.03 184.92L569.87 184.92Q569.87 183.43 569.09 182.63Q568.31 181.82 566.90 181.82Q565.48 181.82 564.68 182.62Q563.87 183.41 563.87 184.90L563.87 192.84Q563.87 194.33 564.68 195.14Q565.48 195.96 566.90 195.96Q568.31 195.96 569.09 195.14Q569.87 194.33 569.87 192.84L569.87 190.44L566.32 190.44L566.32 188.47L572.03 188.47L572.03 192.84Q572.03 195.17 570.64 196.52Q569.25 197.88 566.90 197.88" fill="white" fill-opacity="0.7"/>
<path d="M595.79 197.88Q593.39 197.88 591.95 196.54Q590.51 195.19 590.51 192.84L590.51 189.24Q590.51 186.89 591.95 185.54Q593.39 184.20 595.79 184.20Q598.07 184.20 599.48 185.42Q600.88 186.65 600.95 188.76L598.79 188.76Q598.72 187.49 597.93 186.80Q597.14 186.12 595.79 186.12Q594.38 186.12 593.52 186.92Q592.67 187.73 592.67 189.22L592.67 192.84Q592.67 194.33 593.52 195.14Q594.38 195.96 595.79 195.96Q597.14 195.96 597.93 195.26Q598.72 194.57 598.79 193.32L600.95 193.32Q600.88 195.43 599.48 196.66Q598.07 197.88 595.79 197.88" fill="white" fill-opacity="0.7"/>
<path d="M610 197.83Q607.62 197.83 606.22 196.44Q604.82 195.05 604.82 192.55L604.82 189.53Q604.82 187.01 606.21 185.63Q607.60 184.25 610 184.25Q612.40 184.25 613.79 185.63Q615.18 187.01 615.18 189.53L615.18 192.55Q615.18 195.05 613.78 196.44Q612.38 197.83 610 197.83M610 195.91Q611.42 195.91 612.22 195.12Q613.02 194.33 613.02 192.79L613.02 189.29Q613.02 187.75 612.22 186.96Q611.42 186.17 610 186.17Q608.61 186.17 607.79 186.96Q606.98 187.75 606.98 189.29L606.98 192.79Q606.98 194.33 607.79 195.12Q608.61 195.91 610 195.91" fill="white" fill-opacity="0.7"/>
<path d="M621.57 197.64L619.41 197.64L619.41 184.44L621.57 184.44L621.57 186.96L621.59 186.96Q621.76 185.64 622.67 184.92Q623.58 184.20 625.10 184.20Q627.09 184.20 628.26 185.42Q629.44 186.65 629.44 188.76L629.44 197.64L627.28 197.64L627.28 189.14Q627.28 187.63 626.52 186.83Q625.77 186.02 624.47 186.02Q623.13 186.02 622.35 186.86Q621.57 187.70 621.57 189.24" fill="white" fill-opacity="0.7"/>
<path d="M635.97 197.64L633.81 197.64L633.81 184.44L635.97 184.44L635.97 186.96L635.99 186.96Q636.16 185.64 637.07 184.92Q637.98 184.20 639.50 184.20Q641.49 184.20 642.66 185.42Q643.84 186.65 643.84 188.76L643.84 197.64L641.68 197.64L641.68 189.14Q641.68 187.63 640.92 186.83Q640.17 186.02 638.87 186.02Q637.53 186.02 636.75 186.86Q635.97 187.70 635.97 189.24" fill="white" fill-opacity="0.7"/>
<path d="M653.20 197.88Q650.87 197.88 649.44 196.48Q648.02 195.07 648.02 192.60L648.02 189.48Q648.02 187.01 649.44 185.60Q650.87 184.20 653.20 184.20Q654.76 184.20 655.92 184.82Q657.09 185.45 657.74 186.58Q658.38 187.70 658.38 189.24L658.38 191.59L650.13 191.59L650.13 192.84Q650.13 194.30 650.97 195.16Q651.81 196.01 653.20 196.01Q654.40 196.01 655.18 195.54Q655.96 195.07 656.13 194.28L658.29 194.28Q658.07 195.94 656.68 196.91Q655.29 197.88 653.20 197.88M650.13 189.24L650.13 189.91L656.27 189.91L656.27 189.24Q656.27 187.68 655.47 186.83Q654.66 185.98 653.20 185.98Q651.74 185.98 650.93 186.83Q650.13 187.68 650.13 189.24" fill="white" fill-opacity="0.7"/>
<path d="M667.79 197.88Q665.39 197.88 663.95 196.54Q662.51 195.19 662.51 192.84L662.51 189.24Q662.51 186.89 663.95 185.54Q665.39 184.20 667.79 184.20Q670.07 184.20 671.48 185.42Q672.88 186.65 672.95 188.76L670.79 188.76Q670.72 187.49 669.93 186.80Q669.14 186.12 667.79 186.12Q666.38 186.12 665.52 186.92Q664.67 187.73 664.67 189.22L664.67 192.84Q664.67 194.33 665.52 195.14Q666.38 195.96 667.79 195.96Q669.14 195.96 669.93 195.26Q670.72 194.57 670.79 193.32L672.95 193.32Q672.88 195.43 671.48 196.66Q670.07 197.88 667.79 197.88" fill="white" fill-opacity="0.7"/>
<path d="M687.16 197.64L683.32 197.64Q681.69 197.64 680.70 196.69Q679.72 195.74 679.72 194.16L679.72 186.41L675.93 186.41L675.93 184.44L679.72 184.44L679.72 180.72L681.88 180.72L681.88 184.44L687.28 184.44L687.28 186.41L681.88 186.41L681.88 194.16Q681.88 194.83 682.28 195.25Q682.67 195.67 683.32 195.67L687.16 195.67" fill="white" fill-opacity="0.7"/>
<path d="M702.52 197.64L691.24 197.64L691.24 195.67L695.92 195.67L695.92 186.41L691.72 186.41L691.72 184.44L698.08 184.44L698.08 195.67L702.52 195.67L702.52 197.64M696.76 182.06Q695.97 182.06 695.51 181.66Q695.06 181.25 695.06 180.55Q695.06 179.83 695.51 179.41Q695.97 178.99 696.76 178.99Q697.55 178.99 698.01 179.41Q698.46 179.83 698.46 180.55Q698.46 181.25 698.01 181.66Q697.55 182.06 696.76 182.06" fill="white" fill-opacity="0.7"/>
<path d="M710.80 197.83Q708.42 197.83 707.02 196.44Q705.62 195.05 705.62 192.55L705.62 189.53Q705.62 187.01 707.01 185.63Q708.40 184.25 710.80 184.25Q713.20 184.25 714.59 185.63Q715.98 187.01 715.98 189.53L715.98 192.55Q715.98 195.05 714.58 196.44Q713.18 197.83 710.80 197.83M710.80 195.91Q712.22 195.91 713.02 195.12Q713.82 194.33 713.82 192.79L713.82 189.29Q713.82 187.75 713.02 186.96Q712.22 186.17 710.80 186.17Q709.41 186.17 708.59 186.96Q707.78 187.75 707.78 189.29L707.78 192.79Q707.78 194.33 708.59 195.12Q709.41 195.91 710.80 195.91" fill="white" fill-opacity="0.7"/>
<path d="M722.37 197.64L720.21 197.64L720.21 184.44L722.37 184.44L722.37 186.96L722.39 186.96Q722.56 185.64 723.47 184.92Q724.38 184.20 725.90 184.20Q727.89 184.20 729.06 185.42Q730.24 186.65 730.24 188.76L730.24 197.64L728.08 197.64L728.08 189.14Q728.08 187.63 727.32 186.83Q726.57 186.02 725.27 186.02Q723.93 186.02 723.15 186.86Q722.37 187.70 722.37 189.24" fill="white" fill-opacity="0.7"/>
<path d="M740.13 197.83L739.07 197.83Q736.86 197.83 735.65 196.84Q734.44 195.84 734.44 194.02L736.60 194.02Q736.60 194.93 737.25 195.44Q737.90 195.96 739.07 195.96L740.13 195.96Q741.33 195.96 741.99 195.43Q742.65 194.90 742.65 193.94Q742.65 192.24 741.09 192.02L737.44 191.50Q736.10 191.30 735.35 190.38Q734.61 189.46 734.61 187.94Q734.61 186.22 735.80 185.23Q736.98 184.25 739.07 184.25L740.13 184.25Q742.05 184.25 743.26 185.20Q744.47 186.14 744.57 187.68L742.38 187.68Q742.34 186.98 741.72 186.53Q741.11 186.07 740.13 186.07L739.07 186.07Q737.97 186.07 737.34 186.58Q736.72 187.08 736.72 187.94Q736.72 189.34 737.99 189.53L741.40 190.01Q744.76 190.49 744.76 193.94Q744.76 195.79 743.55 196.81Q742.34 197.83 740.13 197.83" fill="white" fill-opacity="0.7"/>
<path d="M767.25 197.88Q765.21 197.88 764.01 196.74Q762.81 195.60 762.81 193.75Q762.81 192.53 763.36 191.62Q763.91 190.70 764.90 190.19Q765.88 189.67 767.15 189.67L771.23 189.67L771.23 188.64Q771.23 186.07 768.42 186.07Q767.18 186.07 766.41 186.53Q765.64 186.98 765.59 187.80L763.43 187.80Q763.55 186.24 764.88 185.22Q766.22 184.20 768.42 184.20Q770.82 184.20 772.11 185.35Q773.39 186.50 773.39 188.57L773.39 197.64L771.26 197.64L771.26 195.24L771.21 195.24Q771.02 196.46 769.98 197.17Q768.95 197.88 767.25 197.88M767.78 196.06Q769.36 196.06 770.30 195.29Q771.23 194.52 771.23 193.20L771.23 191.35L767.39 191.35Q766.34 191.35 765.68 191.99Q765.02 192.62 765.02 193.68Q765.02 194.78 765.75 195.42Q766.48 196.06 767.78 196.06" fill="white" fill-opacity="0.7"/>
<path d="M780.45 197.64L778.29 197.64L778.29 184.44L780.45 184.44L780.45 186.96L780.50 186.96Q780.66 185.69 781.58 184.94Q782.49 184.20 784.02 184.20Q786.09 184.20 787.20 185.44Q788.32 186.67 788.32 188.95L788.32 190.08L786.16 190.08L786.16 188.95Q786.16 186.07 783.35 186.07Q781.94 186.07 781.19 186.89Q780.45 187.70 780.45 189.24" fill="white" fill-opacity="0.7"/>
<path d="M797.20 197.88Q794.87 197.88 793.44 196.48Q792.02 195.07 792.02 192.60L792.02 189.48Q792.02 187.01 793.44 185.60Q794.87 184.20 797.20 184.20Q798.76 184.20 799.92 184.82Q801.09 185.45 801.74 186.58Q802.38 187.70 802.38 189.24L802.38 191.59L794.13 191.59L794.13 192.84Q794.13 194.30 794.97 195.16Q795.81 196.01 797.20 196.01Q798.40 196.01 799.18 195.54Q799.96 195.07 800.13 194.28L802.29 194.28Q802.07 195.94 800.68 196.91Q799.29 197.88 797.20 197.88M794.13 189.24L794.13 189.91L800.27 189.91L800.27 189.24Q800.27 187.68 799.47 186.83Q798.66 185.98 797.20 185.98Q795.74 185.98 794.93 186.83Q794.13 187.68 794.13 189.24" fill="white" fill-opacity="0.7"/>
<path d="M824.85 197.88Q822.81 197.88 821.61 196.74Q820.41 195.60 820.41 193.75Q820.41 192.53 820.96 191.62Q821.51 190.70 822.50 190.19Q823.48 189.67 824.75 189.67L828.83 189.67L828.83 188.64Q828.83 186.07 826.02 186.07Q824.78 186.07 824.01 186.53Q823.24 186.98 823.19 187.80L821.03 187.80Q821.15 186.24 822.48 185.22Q823.82 184.20 826.02 184.20Q828.42 184.20 829.71 185.35Q830.99 186.50 830.99 188.57L830.99 197.64L828.86 197.64L828.86 195.24L828.81 195.24Q828.62 196.46 827.58 197.17Q826.55 197.88 824.85 197.88M825.38 196.06Q826.96 196.06 827.90 195.29Q828.83 194.52 828.83 193.20L828.83 191.35L824.99 191.35Q823.94 191.35 823.28 191.99Q822.62 192.62 822.62 193.68Q822.62 194.78 823.35 195.42Q824.08 196.06 825.38 196.06" fill="white" fill-opacity="0.7"/>
<path d="M841.82 197.64L838.98 197.64L834.50 184.44L836.82 184.44L839.70 193.32Q839.97 194.11 840.16 194.84Q840.35 195.58 840.45 195.98Q840.57 195.58 840.74 194.84Q840.90 194.11 841.14 193.32L844.02 184.44L846.30 184.44" fill="white" fill-opacity="0.7"/>
<path d="M853.65 197.88Q851.61 197.88 850.41 196.74Q849.21 195.60 849.21 193.75Q849.21 192.53 849.76 191.62Q850.31 190.70 851.30 190.19Q852.28 189.67 853.55 189.67L857.63 189.67L857.63 188.64Q857.63 186.07 854.82 186.07Q853.58 186.07 852.81 186.53Q852.04 186.98 851.99 187.80L849.83 187.80Q849.95 186.24 851.28 185.22Q852.62 184.20 854.82 184.20Q857.22 184.20 858.51 185.35Q859.79 186.50 859.79 188.57L859.79 197.64L857.66 197.64L857.66 195.24L857.61 195.24Q857.42 196.46 856.38 197.17Q855.35 197.88 853.65 197.88M854.18 196.06Q855.76 196.06 856.70 195.29Q857.63 194.52 857.63 193.20L857.63 191.35L853.79 191.35Q852.74 191.35 852.08 191.99Q851.42 192.62 851.42 193.68Q851.42 194.78 852.15 195.42Q852.88 196.06 854.18 196.06" fill="white" fill-opacity="0.7"/>
<path d="M875.32 197.64L864.04 197.64L864.04 195.67L868.72 195.67L868.72 186.41L864.52 186.41L864.52 184.44L870.88 184.44L870.88 195.67L875.32 195.67L875.32 197.64M869.56 182.06Q868.77 182.06 868.31 181.66Q867.86 181.25 867.86 180.55Q867.86 179.83 868.31 179.41Q868.77 178.99 869.56 178.99Q870.35 178.99 870.81 179.41Q871.26 179.83 871.26 180.55Q871.26 181.25 870.81 181.66Q870.35 182.06 869.56 182.06" fill="white" fill-opacity="0.7"/>
<path d="M889.60 197.64L885.52 197.64Q883.77 197.64 882.72 196.62Q881.68 195.60 881.68 193.92L881.68 182.09L877.12 182.09L877.12 180.12L883.84 180.12L883.84 193.92Q883.84 194.74 884.30 195.20Q884.75 195.67 885.52 195.67L889.60 195.67" fill="white" fill-opacity="0.7"/>
<path d="M896.85 197.88Q894.81 197.88 893.61 196.74Q892.41 195.60 892.41 193.75Q892.41 192.53 892.96 191.62Q893.51 190.70 894.50 190.19Q895.48 189.67 896.75 189.67L900.83 189.67L900.83 188.64Q900.83 186.07 898.02 186.07Q896.78 186.07 896.01 186.53Q895.24 186.98 895.19 187.80L893.03 187.80Q893.15 186.24 894.48 185.22Q895.82 184.20 898.02 184.20Q900.42 184.20 901.71 185.35Q902.99 186.50 902.99 188.57L902.99 197.64L900.86 197.64L900.86 195.24L900.81 195.24Q900.62 196.46 899.58 197.17Q898.55 197.88 896.85 197.88M897.38 196.06Q898.96 196.06 899.90 195.29Q900.83 194.52 900.83 193.20L900.83 191.35L896.99 191.35Q895.94 191.35 895.28 191.99Q894.62 192.62 894.62 193.68Q894.62 194.78 895.35 195.42Q896.08 196.06 897.38 196.06" fill="white" fill-opacity="0.7"/>
<path d="M913.17 197.88Q911.68 197.88 910.72 197.15Q909.76 196.42 909.59 195.12L909.57 195.12L909.57 197.64L907.41 197.64L907.41 180.12L909.57 180.12L909.57 183.96L909.52 186.96L909.54 186.96Q909.74 185.69 910.71 184.94Q911.68 184.20 913.17 184.20Q915.16 184.20 916.34 185.52Q917.51 186.84 917.51 189.12L917.51 192.98Q917.51 195.24 916.34 196.56Q915.16 197.88 913.17 197.88M912.45 196.01Q913.82 196.01 914.58 195.29Q915.35 194.57 915.35 192.96L915.35 189.12Q915.35 187.49 914.58 186.78Q913.82 186.07 912.45 186.07Q911.13 186.07 910.35 186.91Q909.57 187.75 909.57 189.24L909.57 192.84Q909.57 194.33 910.35 195.17Q911.13 196.01 912.45 196.01" fill="white" fill-opacity="0.7"/>
<path d="M932.80 197.64L928.72 197.64Q926.97 197.64 925.92 196.62Q924.88 195.60 924.88 193.92L924.88 182.09L920.32 182.09L920.32 180.12L927.04 180.12L927.04 193.92Q927.04 194.74 927.50 195.20Q927.95 195.67 928.72 195.67L932.80 195.67" fill="white" fill-opacity="0.7"/>
<path d="M941.20 197.88Q938.87 197.88 937.44 196.48Q936.02 195.07 936.02 192.60L936.02 189.48Q936.02 187.01 937.44 185.60Q938.87 184.20 941.20 184.20Q942.76 184.20 943.92 184.82Q945.09 185.45 945.74 186.58Q946.38 187.70 946.38 189.24L946.38 191.59L938.13 191.59L938.13 192.84Q938.13 194.30 938.97 195.16Q939.81 196.01 941.20 196.01Q942.40 196.01 943.18 195.54Q943.96 195.07 944.13 194.28L946.29 194.28Q946.07 195.94 944.68 196.91Q943.29 197.88 941.20 197.88M938.13 189.24L938.13 189.91L944.27 189.91L944.27 189.24Q944.27 187.68 943.47 186.83Q942.66 185.98 941.20 185.98Q939.74 185.98 938.93 186.83Q938.13 187.68 938.13 189.24" fill="white" fill-opacity="0.7"/>
<path d="M976.12 197.64L964.84 197.64L964.84 195.67L969.52 195.67L969.52 186.41L965.32 186.41L965.32 184.44L971.68 184.44L971.68 195.67L976.12 195.67L976.12 197.64M970.36 182.06Q969.57 182.06 969.11 181.66Q968.66 181.25 968.66 180.55Q968.66 179.83 969.11 179.41Q969.57 178.99 970.36 178.99Q971.15 178.99 971.61 179.41Q972.06 179.83 972.06 180.55Q972.06 181.25 971.61 181.66Q971.15 182.06 970.36 182.06" fill="white" fill-opacity="0.7"/>
<path d="M981.57 197.64L979.41 197.64L979.41 184.44L981.57 184.44L981.57 186.96L981.59 186.96Q981.76 185.64 982.67 184.92Q983.58 184.20 985.10 184.20Q987.09 184.20 988.26 185.42Q989.44 186.65 989.44 188.76L989.44 197.64L987.28 197.64L987.28 189.14Q987.28 187.63 986.52 186.83Q985.77 186.02 984.47 186.02Q983.13 186.02 982.35 186.86Q981.57 187.70 981.57 189.24" fill="white" fill-opacity="0.7"/>
<path d="M1013.39 197.88Q1010.99 197.88 1009.55 196.54Q1008.11 195.19 1008.11 192.84L1008.11 189.24Q1008.11 186.89 1009.55 185.54Q1010.99 184.20 1013.39 184.20Q1015.67 184.20 1017.08 185.42Q1018.48 186.65 1018.55 188.76L1016.39 188.76Q1016.32 187.49 1015.53 186.80Q1014.74 186.12 1013.39 186.12Q1011.98 186.12 1011.12 186.92Q1010.27 187.73 1010.27 189.22L1010.27 192.84Q1010.27 194.33 1011.12 195.14Q1011.98 195.96 1013.39 195.96Q1014.74 195.96 1015.53 195.26Q1016.32 194.57 1016.39 193.32L1018.55 193.32Q1018.48 195.43 1017.08 196.66Q1015.67 197.88 1013.39 197.88" fill="white" fill-opacity="0.7"/>
<path d="M1033.72 197.64L1022.44 197.64L1022.44 195.67L1027.12 195.67L1027.12 186.41L1022.92 186.41L1022.92 184.44L1029.28 184.44L1029.28 195.67L1033.72 195.67L1033.72 197.64M1027.96 182.06Q1027.17 182.06 1026.71 181.66Q1026.26 181.25 1026.26 180.55Q1026.26 179.83 1026.71 179.41Q1027.17 178.99 1027.96 178.99Q1028.75 178.99 1029.21 179.41Q1029.66 179.83 1029.66 180.55Q1029.66 181.25 1029.21 181.66Q1028.75 182.06 1027.96 182.06" fill="white" fill-opacity="0.7"/>
<path d="M1047.16 197.64L1043.32 197.64Q1041.69 197.64 1040.70 196.69Q1039.72 195.74 1039.72 194.16L1039.72 186.41L1035.93 186.41L1035.93 184.44L1039.72 184.44L1039.72 180.72L1041.88 180.72L1041.88 184.44L1047.28 184.44L1047.28 186.41L1041.88 186.41L1041.88 194.16Q1041.88 194.83 1042.28 195.25Q1042.67 195.67 1043.32 195.67L1047.16 195.67" fill="white" fill-opacity="0.7"/>
<path d="M1062.52 197.64L1051.24 197.64L1051.24 195.67L1055.92 195.67L1055.92 186.41L1051.72 186.41L1051.72 184.44L1058.08 184.44L1058.08 195.67L1062.52 195.67L1062.52 197.64M1056.76 182.06Q1055.97 182.06 1055.51 181.66Q1055.06 181.25 1055.06 180.55Q1055.06 179.83 1055.51 179.41Q1055.97 178.99 1056.76 178.99Q1057.55 178.99 1058.01 179.41Q1058.46 179.83 1058.46 180.55Q1058.46 181.25 1058.01 181.66Q1057.55 182.06 1056.76 182.06" fill="white" fill-opacity="0.7"/>
<path d="M1075.84 197.64L1065.76 197.64L1065.76 195.48L1073.15 186.41L1065.95 186.41L1065.95 184.44L1075.58 184.44L1075.58 186.60L1068.04 195.67L1075.84 195.67" fill="white" fill-opacity="0.7"/>
<path d="M1085.20 197.88Q1082.87 197.88 1081.44 196.48Q1080.02 195.07 1080.02 192.60L1080.02 189.48Q1080.02 187.01 1081.44 185.60Q1082.87 184.20 1085.20 184.20Q1086.76 184.20 1087.92 184.82Q1089.09 185.45 1089.74 186.58Q1090.38 187.70 1090.38 189.24L1090.38 191.59L1082.13 191.59L1082.13 192.84Q1082.13 194.30 1082.97 195.16Q1083.81 196.01 1085.20 196.01Q1086.40 196.01 1087.18 195.54Q1087.96 195.07 1088.13 194.28L1090.29 194.28Q1090.07 195.94 1088.68 196.91Q1087.29 197.88 1085.20 197.88M1082.13 189.24L1082.13 189.91L1088.27 189.91L1088.27 189.24Q1088.27 187.68 1087.47 186.83Q1086.66 185.98 1085.20 185.98Q1083.74 185.98 1082.93 186.83Q1082.13 187.68 1082.13 189.24" fill="white" fill-opacity="0.7"/>
<path d="M1096.77 197.64L1094.61 197.64L1094.61 184.44L1096.77 184.44L1096.77 186.96L1096.79 186.96Q1096.96 185.64 1097.87 184.92Q1098.78 184.20 1100.30 184.20Q1102.29 184.20 1103.46 185.42Q1104.64 186.65 1104.64 188.76L1104.64 197.64L1102.48 197.64L1102.48 189.14Q1102.48 187.63 1101.72 186.83Q1100.97 186.02 1099.67 186.02Q1098.33 186.02 1097.55 186.86Q1096.77 187.70 1096.77 189.24" fill="white" fill-opacity="0.7"/>
<path d="M1114.53 197.83L1113.47 197.83Q1111.26 197.83 1110.05 196.84Q1108.84 195.84 1108.84 194.02L1111 194.02Q1111 194.93 1111.65 195.44Q1112.30 195.96 1113.47 195.96L1114.53 195.96Q1115.73 195.96 1116.39 195.43Q1117.05 194.90 1117.05 193.94Q1117.05 192.24 1115.49 192.02L1111.84 191.50Q1110.50 191.30 1109.75 190.38Q1109.01 189.46 1109.01 187.94Q1109.01 186.22 1110.20 185.23Q1111.38 184.25 1113.47 184.25L1114.53 184.25Q1116.45 184.25 1117.66 185.20Q1118.87 186.14 1118.97 187.68L1116.78 187.68Q1116.74 186.98 1116.12 186.53Q1115.51 186.07 1114.53 186.07L1113.47 186.07Q1112.37 186.07 1111.74 186.58Q1111.12 187.08 1111.12 187.94Q1111.12 189.34 1112.39 189.53L1115.80 190.01Q1119.16 190.49 1119.16 193.94Q1119.16 195.79 1117.95 196.81Q1116.74 197.83 1114.53 197.83" fill="white" fill-opacity="0.7"/>
<path d="M1129.46 187.32L1127.37 187.32L1127.18 180.12L1129.62 180.12" fill="white" fill-opacity="0.7"/>
<path d="M76.74 229.64L72.21 229.64L72.21 212.12L76.74 212.12Q78.45 212.12 79.68 212.77Q80.92 213.42 81.60 214.59Q82.29 215.77 82.29 217.38L82.29 224.36Q82.29 225.97 81.60 227.16Q80.92 228.34 79.68 228.99Q78.45 229.64 76.74 229.64M74.37 214.04L74.37 227.72L76.74 227.72Q78.33 227.72 79.23 226.83Q80.13 225.94 80.13 224.36L80.13 217.38Q80.13 215.82 79.23 214.93Q78.33 214.04 76.74 214.04" fill="white" fill-opacity="0.7"/>
<path d="M97.72 229.64L86.44 229.64L86.44 227.67L91.12 227.67L91.12 218.41L86.92 218.41L86.92 216.44L93.28 216.44L93.28 227.67L97.72 227.67L97.72 229.64M91.96 214.06Q91.17 214.06 90.71 213.66Q90.26 213.25 90.26 212.55Q90.26 211.83 90.71 211.41Q91.17 210.99 91.96 210.99Q92.75 210.99 93.21 211.41Q93.66 211.83 93.66 212.55Q93.66 213.25 93.21 213.66Q92.75 214.06 91.96 214.06" fill="white" fill-opacity="0.7"/>
<path d="M106.36 233.96L102.66 233.96L102.66 231.99L106.38 231.99Q107.51 231.99 108.16 231.36Q108.81 230.72 108.81 229.64L108.81 228.44L108.86 226.28L108.78 226.28Q108.59 227.46 107.66 228.09Q106.72 228.73 105.30 228.73Q103.26 228.73 102.09 227.43Q100.91 226.14 100.91 223.88L100.91 221.10Q100.91 218.84 102.09 217.52Q103.26 216.20 105.30 216.20Q106.72 216.20 107.66 216.87Q108.59 217.54 108.78 218.72L108.83 218.72L108.83 216.44L110.97 216.44L110.97 229.64Q110.97 231.63 109.73 232.80Q108.50 233.96 106.36 233.96M105.95 226.93Q107.30 226.93 108.06 226.09Q108.83 225.25 108.83 223.76L108.83 221.24Q108.83 219.75 108.06 218.91Q107.30 218.07 105.95 218.07Q104.58 218.07 103.83 218.86Q103.07 219.66 103.07 221L103.07 224Q103.07 225.34 103.83 226.14Q104.58 226.93 105.95 226.93" fill="white" fill-opacity="0.7"/>
<path d="M126.52 229.64L115.24 229.64L115.24 227.67L119.92 227.67L119.92 218.41L115.72 218.41L115.72 216.44L122.08 216.44L122.08 227.67L126.52 227.67L126.52 229.64M120.76 214.06Q119.97 214.06 119.51 213.66Q119.06 213.25 119.06 212.55Q119.06 211.83 119.51 211.41Q119.97 210.99 120.76 210.99Q121.55 210.99 122.01 211.41Q122.46 211.83 122.46 212.55Q122.46 213.25 122.01 213.66Q121.55 214.06 120.76 214.06" fill="white" fill-opacity="0.7"/>
<path d="M140.80 229.64L130.72 229.64L130.72 212.12L132.88 212.12L132.88 227.67L140.80 227.67" fill="white" fill-opacity="0.7"/>
<path d="M149.20 229.83Q146.82 229.83 145.42 228.44Q144.02 227.05 144.02 224.55L144.02 221.53Q144.02 219.01 145.41 217.63Q146.80 216.25 149.20 216.25Q151.60 216.25 152.99 217.63Q154.38 219.01 154.38 221.53L154.38 224.55Q154.38 227.05 152.98 228.44Q151.58 229.83 149.20 229.83M149.20 227.91Q150.62 227.91 151.42 227.12Q152.22 226.33 152.22 224.79L152.22 221.29Q152.22 219.75 151.42 218.96Q150.62 218.17 149.20 218.17Q147.81 218.17 146.99 218.96Q146.18 219.75 146.18 221.29L146.18 224.79Q146.18 226.33 146.99 227.12Q147.81 227.91 149.20 227.91" fill="white" fill-opacity="0.7"/>
<path d="M163.79 229.88Q161.39 229.88 159.95 228.54Q158.51 227.19 158.51 224.84L158.51 221.24Q158.51 218.89 159.95 217.54Q161.39 216.20 163.79 216.20Q166.07 216.20 167.48 217.42Q168.88 218.65 168.95 220.76L166.79 220.76Q166.72 219.49 165.93 218.80Q165.14 218.12 163.79 218.12Q162.38 218.12 161.52 218.92Q160.67 219.73 160.67 221.22L160.67 224.84Q160.67 226.33 161.52 227.14Q162.38 227.96 163.79 227.96Q165.14 227.96 165.93 227.26Q166.72 226.57 166.79 225.32L168.95 225.32Q168.88 227.43 167.48 228.66Q166.07 229.88 163.79 229.88" fill="white" fill-opacity="0.7"/>
<path d="M175.29 229.64L173.13 229.64L173.13 212.12L175.29 212.12L175.29 221.89L177.81 221.89L181.50 216.44L183.98 216.44L179.73 222.73L184.22 229.64L181.70 229.64L177.86 223.76L175.29 223.76" fill="white" fill-opacity="0.7"/>
<path d="M192.40 229.88Q190.07 229.88 188.64 228.48Q187.22 227.07 187.22 224.60L187.22 221.48Q187.22 219.01 188.64 217.60Q190.07 216.20 192.40 216.20Q193.96 216.20 195.12 216.82Q196.29 217.45 196.94 218.58Q197.58 219.70 197.58 221.24L197.58 223.59L189.33 223.59L189.33 224.84Q189.33 226.30 190.17 227.16Q191.01 228.01 192.40 228.01Q193.60 228.01 194.38 227.54Q195.16 227.07 195.33 226.28L197.49 226.28Q197.27 227.94 195.88 228.91Q194.49 229.88 192.40 229.88M189.33 221.24L189.33 221.91L195.47 221.91L195.47 221.24Q195.47 219.68 194.67 218.83Q193.86 217.98 192.40 217.98Q190.94 217.98 190.13 218.83Q189.33 219.68 189.33 221.24" fill="white" fill-opacity="0.7"/>
<path d="M204.45 229.64L202.29 229.64L202.29 216.44L204.45 216.44L204.45 218.96L204.50 218.96Q204.66 217.69 205.58 216.94Q206.49 216.20 208.02 216.20Q210.09 216.20 211.20 217.44Q212.32 218.67 212.32 220.95L212.32 222.08L210.16 222.08L210.16 220.95Q210.16 218.07 207.35 218.07Q205.94 218.07 205.19 218.89Q204.45 219.70 204.45 221.24" fill="white" fill-opacity="0.7"/>
<path d="M234.45 229.88Q232.41 229.88 231.21 228.74Q230.01 227.60 230.01 225.75Q230.01 224.53 230.56 223.62Q231.11 222.70 232.10 222.19Q233.08 221.67 234.35 221.67L238.43 221.67L238.43 220.64Q238.43 218.07 235.62 218.07Q234.38 218.07 233.61 218.53Q232.84 218.98 232.79 219.80L230.63 219.80Q230.75 218.24 232.08 217.22Q233.42 216.20 235.62 216.20Q238.02 216.20 239.31 217.35Q240.59 218.50 240.59 220.57L240.59 229.64L238.46 229.64L238.46 227.24L238.41 227.24Q238.22 228.46 237.18 229.17Q236.15 229.88 234.45 229.88M234.98 228.06Q236.56 228.06 237.50 227.29Q238.43 226.52 238.43 225.20L238.43 223.35L234.59 223.35Q233.54 223.35 232.88 223.99Q232.22 224.62 232.22 225.68Q232.22 226.78 232.95 227.42Q233.68 228.06 234.98 228.06" fill="white" fill-opacity="0.7"/>
<path d="M250.19 229.88Q247.79 229.88 246.35 228.54Q244.91 227.19 244.91 224.84L244.91 221.24Q244.91 218.89 246.35 217.54Q247.79 216.20 250.19 216.20Q252.47 216.20 253.88 217.42Q255.28 218.65 255.35 220.76L253.19 220.76Q253.12 219.49 252.33 218.80Q251.54 218.12 250.19 218.12Q248.78 218.12 247.92 218.92Q247.07 219.73 247.07 221.22L247.07 224.84Q247.07 226.33 247.92 227.14Q248.78 227.96 250.19 227.96Q251.54 227.96 252.33 227.26Q253.12 226.57 253.19 225.32L255.35 225.32Q255.28 227.43 253.88 228.66Q252.47 229.88 250.19 229.88" fill="white" fill-opacity="0.7"/>
<path d="M264.59 229.88Q262.19 229.88 260.75 228.54Q259.31 227.19 259.31 224.84L259.31 221.24Q259.31 218.89 260.75 217.54Q262.19 216.20 264.59 216.20Q266.87 216.20 268.28 217.42Q269.68 218.65 269.75 220.76L267.59 220.76Q267.52 219.49 266.73 218.80Q265.94 218.12 264.59 218.12Q263.18 218.12 262.32 218.92Q261.47 219.73 261.47 221.22L261.47 224.84Q261.47 226.33 262.32 227.14Q263.18 227.96 264.59 227.96Q265.94 227.96 266.73 227.26Q267.52 226.57 267.59 225.32L269.75 225.32Q269.68 227.43 268.28 228.66Q266.87 229.88 264.59 229.88" fill="white" fill-opacity="0.7"/>
<path d="M278.80 229.83Q276.42 229.83 275.02 228.44Q273.62 227.05 273.62 224.55L273.62 221.53Q273.62 219.01 275.01 217.63Q276.40 216.25 278.80 216.25Q281.20 216.25 282.59 217.63Q283.98 219.01 283.98 221.53L283.98 224.55Q283.98 227.05 282.58 228.44Q281.18 229.83 278.80 229.83M278.80 227.91Q280.22 227.91 281.02 227.12Q281.82 226.33 281.82 224.79L281.82 221.29Q281.82 219.75 281.02 218.96Q280.22 218.17 278.80 218.17Q277.41 218.17 276.59 218.96Q275.78 219.75 275.78 221.29L275.78 224.79Q275.78 226.33 276.59 227.12Q277.41 227.91 278.80 227.91" fill="white" fill-opacity="0.7"/>
<path d="M293.18 229.88Q290.90 229.88 289.53 228.52Q288.16 227.17 288.16 224.84L288.16 216.44L290.32 216.44L290.32 224.84Q290.32 226.28 291.09 227.13Q291.86 227.98 293.18 227.98Q294.52 227.98 295.30 227.13Q296.08 226.28 296.08 224.84L296.08 216.44L298.24 216.44L298.24 224.84Q298.24 227.17 296.85 228.52Q295.46 229.88 293.18 229.88" fill="white" fill-opacity="0.7"/>
<path d="M304.77 229.64L302.61 229.64L302.61 216.44L304.77 216.44L304.77 218.96L304.79 218.96Q304.96 217.64 305.87 216.92Q306.78 216.20 308.30 216.20Q310.29 216.20 311.46 217.42Q312.64 218.65 312.64 220.76L312.64 229.64L310.48 229.64L310.48 221.14Q310.48 219.63 309.72 218.83Q308.97 218.02 307.67 218.02Q306.33 218.02 305.55 218.86Q304.77 219.70 304.77 221.24" fill="white" fill-opacity="0.7"/>
<path d="M327.16 229.64L323.32 229.64Q321.69 229.64 320.70 228.69Q319.72 227.74 319.72 226.16L319.72 218.41L315.93 218.41L315.93 216.44L319.72 216.44L319.72 212.72L321.88 212.72L321.88 216.44L327.28 216.44L327.28 218.41L321.88 218.41L321.88 226.16Q321.88 226.83 322.28 227.25Q322.67 227.67 323.32 227.67L327.16 227.67" fill="white" fill-opacity="0.7"/>
<path d="M336.93 229.83L335.87 229.83Q333.66 229.83 332.45 228.84Q331.24 227.84 331.24 226.02L333.40 226.02Q333.40 226.93 334.05 227.44Q334.70 227.96 335.87 227.96L336.93 227.96Q338.13 227.96 338.79 227.43Q339.45 226.90 339.45 225.94Q339.45 224.24 337.89 224.02L334.24 223.50Q332.90 223.30 332.15 222.38Q331.41 221.46 331.41 219.94Q331.41 218.22 332.60 217.23Q333.78 216.25 335.87 216.25L336.93 216.25Q338.85 216.25 340.06 217.20Q341.27 218.14 341.37 219.68L339.18 219.68Q339.14 218.98 338.52 218.53Q337.91 218.07 336.93 218.07L335.87 218.07Q334.77 218.07 334.14 218.58Q333.52 219.08 333.52 219.94Q333.52 221.34 334.79 221.53L338.20 222.01Q341.56 222.49 341.56 225.94Q341.56 227.79 340.35 228.81Q339.14 229.83 336.93 229.83" fill="white" fill-opacity="0.7"/>
<path d="M350.80 229.88Q349.91 229.88 349.37 229.35Q348.83 228.82 348.83 227.98Q348.83 227.10 349.37 226.54Q349.91 225.99 350.80 225.99Q351.69 225.99 352.23 226.54Q352.77 227.10 352.77 227.98Q352.77 228.82 352.23 229.35Q351.69 229.88 350.80 229.88" fill="white" fill-opacity="0.7"/>
<path d="M76.11 136.06L66.42 136.06L84.56 65.98L97.14 65.98L115.18 136.06L105.49 136.06L101.07 117.82L80.53 117.82L76.11 136.06M87.54 88.92L82.45 109.95L99.15 109.95L94.16 89.02Q92.72 83.26 91.86 79.23Q90.99 75.20 90.80 73.76Q90.61 75.20 89.74 79.23Q88.88 83.26 87.54 88.92M137.55 136.06L128.05 136.06L128.05 65.98L150.80 65.98Q157.52 65.98 162.42 68.57Q167.31 71.16 170 75.82Q172.69 80.48 172.69 86.91Q172.69 93.24 170 97.90Q167.31 102.56 162.37 105.15Q157.42 107.74 150.80 107.74L137.55 107.74L137.55 136.06M137.55 74.43L137.55 99.29L150.80 99.29Q156.37 99.29 159.63 95.88Q162.90 92.48 162.90 86.91Q162.90 81.24 159.63 77.84Q156.37 74.43 150.80 74.43L137.55 74.43M225.10 136.06L186.90 136.06L186.90 127.42L201.20 127.42L201.20 74.62L186.90 74.62L186.90 65.98L225.10 65.98L225.10 74.62L210.80 74.62L210.80 127.42L225.10 127.42L225.10 136.06M263.98 137.02Q253.62 137.02 247.47 131.60Q241.33 126.17 241.33 116.67L250.83 116.67Q250.83 122.24 254.38 125.40Q257.94 128.57 263.98 128.57Q269.74 128.57 273.15 125.36Q276.56 122.14 276.56 116.76Q276.56 112.73 274.35 109.71Q272.14 106.68 268.11 105.63L257.74 102.84Q250.93 100.92 246.94 95.88Q242.96 90.84 242.96 83.93Q242.96 78.27 245.50 74Q248.05 69.72 252.66 67.37Q257.26 65.02 263.31 65.02Q269.46 65.02 274.11 67.37Q278.77 69.72 281.36 73.95Q283.95 78.17 283.95 83.74L274.54 83.74Q274.54 79.13 271.42 76.25Q268.30 73.37 263.31 73.37Q258.32 73.37 255.30 76.25Q252.27 79.13 252.27 83.74Q252.27 87.48 254.29 90.03Q256.30 92.57 259.95 93.63L270.61 96.51Q277.81 98.43 281.84 103.85Q285.87 109.28 285.87 116.76Q285.87 122.91 283.18 127.47Q280.50 132.03 275.55 134.52Q270.61 137.02 263.98 137.02M342.51 136.06L301.71 136.06L301.71 65.98L342.51 65.98L342.51 74.52L311.12 74.52L311.12 95.36L339.15 95.36L339.15 103.61L311.12 103.61L311.12 127.52L342.51 127.52L342.51 136.06M383.60 136.06L374.10 136.06L374.10 74.62L355.09 74.62L355.09 65.98L402.51 65.98L402.51 74.62L383.60 74.62L383.60 136.06M436.40 137.02Q426.51 137.02 421.18 131.55Q415.86 126.08 415.86 116.67L415.86 65.98L425.36 65.98L425.36 116.67Q425.36 122.24 428.10 125.40Q430.83 128.57 436.40 128.57Q441.87 128.57 444.70 125.40Q447.54 122.24 447.54 116.67L447.54 65.98L457.04 65.98L457.04 116.67Q457.04 126.17 451.71 131.60Q446.38 137.02 436.40 137.02M551.98 137.02Q542.29 137.02 536.58 131.60Q530.86 126.17 530.86 116.67L530.86 85.28Q530.86 75.87 536.58 70.44Q542.29 65.02 551.98 65.02Q561.58 65.02 567.30 70.49Q573.01 75.96 573.01 85.28L563.50 85.28Q563.50 79.61 560.43 76.54Q557.36 73.47 551.98 73.47Q546.51 73.47 543.44 76.54Q540.37 79.61 540.37 85.28L540.37 116.67Q540.37 122.43 543.44 125.50Q546.51 128.57 551.98 128.57Q557.36 128.57 560.43 125.50Q563.50 122.43 563.50 116.67L563.50 107.55L549.87 107.55L549.87 99.10L573.01 99.10L573.01 116.67Q573.01 126.08 567.30 131.55Q561.58 137.02 551.98 137.02M609.20 137.02Q599.60 137.02 594.03 131.45Q588.46 125.88 588.46 115.71L588.46 86.24Q588.46 76.16 594.03 70.59Q599.60 65.02 609.20 65.02Q618.80 65.02 624.37 70.54Q629.94 76.06 629.94 86.24L629.94 115.71Q629.94 125.88 624.37 131.45Q618.80 137.02 609.20 137.02M609.20 128.57Q614.58 128.57 617.50 125.50Q620.43 122.43 620.43 116.67L620.43 85.28Q620.43 79.61 617.55 76.54Q614.67 73.47 609.20 73.47Q603.73 73.47 600.85 76.54Q597.97 79.61 597.97 85.28L597.97 116.67Q597.97 122.43 600.90 125.50Q603.82 128.57 609.20 128.57M673.14 136.06L660.37 136.06L642.42 65.98L652.21 65.98L663.82 113.21Q664.98 117.72 665.79 121.90Q666.61 126.08 666.99 128.28Q667.28 126.08 668.19 121.85Q669.10 117.63 670.16 113.12L681.39 65.98L691.18 65.98L673.14 136.06M783.34 136.06L761.74 136.06L761.74 65.98LNaN 65.98Q791.70 65.98 797.31 70.83Q802.93 75.68 802.93 84.12Q802.93 89.60 799.52 93.87Q796.11 98.14 790.74 99.10L790.74 99.39Q794.77 99.87 797.89 102.27Q801.01 104.67 802.78 108.36Q804.56 112.06 804.56 116.48Q804.56 125.50 798.85 130.78Q793.14 136.06 783.34 136.06M771.06 74.33L771.06 95.55L781.90 95.55Q787.28 95.55 790.35 92.72Q793.42 89.88 793.42 84.99Q793.42 80 790.35 77.16Q787.28 74.33 NaN 74.33L771.06 74.33M771.06 103.61L771.06 127.71L782.48 127.71Q788.34 127.71 791.70 124.59Q795.06 121.47 795.06 116.09Q795.06 110.52 791.70 107.07Q788.34 103.61 782.48 103.61L771.06 103.61M828.85 136.06L819.34 136.06L819.34 65.98L828.85 65.98L828.85 95.55L850.35 95.55L850.35 65.98L859.86 65.98L859.86 136.06L850.35 136.06L850.35 104.19L828.85 104.19L828.85 136.06M882.51 136.06L872.82 136.06L890.96 65.98L903.54 65.98L921.58 136.06L911.89 136.06L907.47 117.82L886.93 117.82L882.51 136.06M893.94 88.92L888.85 109.95L905.55 109.95L900.56 89.02Q899.12 83.26 898.26 79.23Q897.39 75.20 897.20 73.76Q897.01 75.20 896.14 79.23Q895.28 83.26 893.94 88.92M943.95 136.06L934.54 136.06L934.54 65.98L956.24 65.98Q962.67 65.98 967.47 68.52Q972.27 71.07 974.96 75.63Q977.65 80.19 977.65 86.33Q977.65 93.44 974.05 98.52Q970.45 103.61 964.50 105.72L978.61 136.06L968.14 136.06L954.80 106.78L943.95 106.78L943.95 136.06M943.95 74.43L943.95 98.33L956.24 98.33Q961.62 98.33 964.74 95.07Q967.86 91.80 967.86 86.43Q967.86 80.96 964.69 77.69Q961.52 74.43 956.24 74.43L943.95 74.43M997.71 136.06L988.02 136.06L1006.16 65.98L1018.74 65.98L1036.78 136.06L1027.09 136.06L1022.67 117.82L1002.13 117.82L997.71 136.06M1009.14 88.92L1004.05 109.95L1020.75 109.95L1015.76 89.02Q1014.32 83.26 1013.46 79.23Q1012.59 75.20 1012.40 73.76Q1012.21 75.20 1011.34 79.23Q1010.48 83.26 1009.14 88.92M1074.80 136.06L1065.30 136.06L1065.30 74.62L1046.29 74.62L1046.29 65.98L1093.71 65.98L1093.71 74.62L1074.80 74.62L1074.80 136.06M1116.75 136.06L1107.25 136.06L1107.25 65.98LNaN 65.98Q1136.72 65.98 1141.62 68.57Q1146.51 71.16 1149.20 75.82Q1151.89 80.48 1151.89 86.91Q1151.89 93.24 1149.20 97.90Q1146.51 102.56 1141.57 105.15Q1136.62 107.74 NaN 107.74L1116.75 107.74L1116.75 136.06M1116.75 74.43L1116.75 99.29LNaN 99.29Q1135.57 99.29 1138.83 95.88Q1142.10 92.48 1142.10 86.91Q1142.10 81.24 1138.83 77.84Q1135.57 74.43 NaN 74.43L1116.75 74.43M1206.51 136.06L1165.71 136.06L1165.71 65.98L1206.51 65.98L1206.51 74.52L1175.12 74.52L1175.12 95.36L1203.15 95.36L1203.15 103.61L1175.12 103.61L1175.12 127.52L1206.51 127.52L1206.51 136.06M1247.60 136.06L1238.10 136.06L1238.10 74.62L1219.09 74.62L1219.09 65.98L1266.51 65.98L1266.51 74.62L1247.60 74.62L1247.60 136.06M1289.55 136.06L1280.14 136.06L1280.14 65.98L1301.84 65.98Q1308.27 65.98 1313.07 68.52Q1317.87 71.07 1320.56 75.63Q1323.25 80.19 1323.25 86.33Q1323.25 93.44 1319.65 98.52Q1316.05 103.61 1310.10 105.72L1324.21 136.06L1313.74 136.06L1300.40 106.78L1289.55 106.78L1289.55 136.06M1289.55 74.43L1289.55 98.33L1301.84 98.33Q1307.22 98.33 1310.34 95.07Q1313.46 91.80 1313.46 86.43Q1313.46 80.96 1310.29 77.69Q1307.12 74.43 1301.84 74.43L1289.55 74.43M1358 137.02Q1348.40 137.02 1342.83 131.45Q1337.26 125.88 1337.26 115.71L1337.26 86.24Q1337.26 76.16 1342.83 70.59Q1348.40 65.02 1358 65.02Q1367.60 65.02 1373.17 70.54Q1378.74 76.06 1378.74 86.24L1378.74 115.71Q1378.74 125.88 1373.17 131.45Q1367.60 137.02 1358 137.02M1358 128.57Q1363.38 128.57 1366.30 125.50Q1369.23 122.43 1369.23 116.67L1369.23 85.28Q1369.23 79.61 1366.35 76.54Q1363.47 73.47 1358 73.47Q1352.53 73.47 1349.65 76.54Q1346.77 79.61 1346.77 85.28L1346.77 116.67Q1346.77 122.43 1349.70 125.50Q1352.62 128.57 1358 128.57M1439.79 136.06L1399.09 136.06L1399.09 65.98L1408.59 65.98L1408.59 127.42L1439.79 127.42L1439.79 136.06M1494.51 136.06L1453.71 136.06L1453.71 65.98L1494.51 65.98L1494.51 74.52L1463.12 74.52L1463.12 95.36L1491.15 95.36L1491.15 103.61L1463.12 103.61L1463.12 127.52L1494.51 127.52L1494.51 136.06M1530.80 137.02Q1520.91 137.02 1515.58 131.55Q1510.26 126.08 1510.26 116.67L1510.26 65.98L1519.76 65.98L1519.76 116.67Q1519.76 122.24 1522.50 125.40Q1525.23 128.57 1530.80 128.57Q1536.27 128.57 1539.10 125.40Q1541.94 122.24 1541.94 116.67L1541.94 65.98L1551.44 65.98L1551.44 116.67Q1551.44 126.17 1546.11 131.60Q1540.78 137.02 1530.80 137.02M1575.15 136.06L1566.13 136.06L1566.13 65.98L1579.57 65.98L1588.21 96.22L1597.23 65.98L1610.77 65.98L1610.77 136.06L1601.65 136.06L1601.65 103.90Q1601.65 98.81 1601.84 92.62Q1602.03 86.43 1602.37 80.24Q1602.70 74.04 1603.09 69.05L1592.14 104.96L1584.08 104.96L1573.52 69.92Q1574.38 76.92 1574.77 85.52Q1575.15 94.11 1575.15 103.90" fill="url(#paint2_linear_0_1)"/>
<g id="Group 1">
<rect id="Rectangle 1" x="26" y="168" width="12" height="184" rx="5" fill="url(#paint3_linear_0_1)" fill-opacity="0.9"/>
</g>
<g id="Group 1_2">
<rect id="Rectangle 2" x="26" y="38" width="12" height="119" rx="5" fill="url(#paint4_linear_0_1)" fill-opacity="0.9"/>
</g>
<ellipse id="Ellipse 1" cx="148.5" cy="573" rx="215.5" ry="214" fill="url(#paint5_linear_0_1)" fill-opacity="0.4"/>
<rect id="Rectangle 3" x="1229" y="48" width="300" height="300" rx="25" fill="#FFFBFB" fill-opacity="0.9"/>
<g id="placeholder-logo"><g transform="translate(1229,48) translate(0.0,60.0) scale(1.2000)"><g fill="#666666">
  <path d="m88.05,27.65c-3.15,4 -3.2,51.2 -0.05,54.35c2.75,2.75 71.7,3.15 74.45,0.45c2.85,-2.9 2.3,-53.85 -0.65,-55.9c-1.95,-1.35 -7.15,-1.55 -36.95,-1.55l-34.7,0l-2.1,2.65zm69.45,3.35c0.65,0 1,8.6 1,23.75l0,23.75l-33,0l-33,0l-0.25,-23c-0.15,-12.6 -0.1,-23.45 0.15,-24.1c0.35,-0.85 8.9,-1.05 32.25,-0.75c17.55,0.2 32.3,0.35 32.85,0.35z"/>
  <path d="m99.15,37.3c-6.85,7.35 4.25,17.35 11.4,10.25c1.35,-1.35 2.45,-3.65 2.45,-5.05c0,-6.45 -9.35,-9.95 -13.85,-5.2z"/>
  <path d="m135,42.5c-0.7,0.85 -5.25,5.15 -10.1,9.6l-8.85,8.1l-3.2,-3.2l-3.15,-3.15l-6.35,6.3c-5.55,5.5 -6.35,6.75 -6.35,10.05l0,3.8l28.5,0l28.5,0l0,-8.6l0,-8.55l-8.15,-7.7c-9.35,-8.85 -9.15,-8.7 -10.85,-6.65zm7.25,15.2c0.95,0.9 1.75,2.9 1.75,4.45c6.35,-5.05 4.75,-7.15 4.9,-11.55c0.95,0 0,0 0,0l-6.65,7.1z"/>
  <path d="m53.65,110.75c0.1,4.8 0.45,8.65 0.75,8.5c0.35,-0.15 1.3,-0.25 2.1,-0.25c1.1,0 1.5,-1.2 1.5,-4.75l0,-4.75l3.25,5c4.9,7.5 6.2,6.75 6.55,-3.75c0.25,-8.15 0.15,-8.75 -1.7,-8.75c-1.65,0 -2.05,0.8 -2.3,4.75l-0.3,4.75l-2.8,-4.75c-4.85,-8.25 -7.25,-6.9 -7.05,4z"/>
  <path d="m91,108.9c0,9.65 0.3,10.1 6.1,10.1c5.8,0 7.15,-2.65 1.65,-3.2l-3.25,-0.3l-0.3,-6.75c-0.25,-5.95 -0.55,-6.75 -2.25,-6.75c-1.75,0 -1.95,0.7 -1.95,6.9z"/>
  <path d="m151,102.45c0,0.25 1,2.15 2.25,4.2c1.2,2.1 2.45,5.8 2.75,8.25c0.65,5.9 4,6.95 4,1.25c0.05,-2.1 1.25,-5.85 2.95,-8.9l2.9,-5.25l-2.5,0c-1.8,0 -2.8,0.85 -3.75,3.1l-1.3,3.05l-1.25,-3.05c-1.1,-2.6 -6.05,-4.8 -6.05,-2.65z"/>
  <path d="m191,107.45c0,9.05 3.4,8.85 4.25,-0.2c0.45,-5 0.35,-5.25 -1.9,-5.25c-2.2,0 -2.35,0.4 -2.35,5.45z"/>
  <path d="m180.8,104.75c-1.3,5.35 0.65,13.6 3.45,14.35c2.3,0.6 2.75,0.4 2.75,-1.2c0,-1.05 -0.45,-1.9 -1,-1.9c-0.55,0 -1,-1.6 -1,-3.5c0,-1.95 0.45,-3.5 1,-3.5c0.55,0 1,-0.7 1,-1.5c0,-0.85 -0.45,-1.5 -1,-1.5c-0.55,0 -1,-0.7 -1,-1.5c0,-2.1 -3.65,-1.9 -4.2,0.25z"/>
  <path d="m71.55,106.55c-2.2,2.25 -2.05,9.7 0.3,11.8c4.5,4.1 10.15,0.75 10.15,-6.1c0,-4.85 -2,-7.25 -6,-7.25c-1.55,0 -3.55,0.7 -4.45,1.55zm6.25,5.8c0.25,3.05 0,3.65 -1.6,3.65c-2.3,0 -3.25,-2.65 -2.05,-5.85c1.25,-3.35 3.3,-2.1 3.65,2.2z"/>
  <path d="m105.75,106.1c-2.5,1.45 -2.45,9.95 0.1,12.25c4.3,3.9 10.15,0.35 10.15,-6.2c0,-6 -5.15,-9.05 -10.25,-6.05zm6.05,6.25c0.25,3.05 0,3.65 -1.6,3.65c-2.3,0 -3.25,-2.65 -2.05,-5.85c1.25,-3.35 3.3,-2.1 3.65,2.2z"/>
  <path d="m119.2,106.2c-3.8,3.8 -0.4,12.55 4.4,11.35c1.9,-0.45 2.45,-0.3 2.15,0.65c-0.25,0.7 -1.55,1.2 -2.85,1.1c-4.05,-0.3 -5.35,0.45 -3.85,2.25c0.85,1.05 2.6,1.45 5.35,1.25l4.1,-0.3l0.3,-8.75l0.3,-8.75l-4.35,0c-2.4,0 -4.9,0.55 -5.55,1.2zm6.6,4.45c0.4,2.85 -2.15,4.85 -3.75,2.95c-0.9,-1.1 -0.9,-2 -0.05,-3.6c1.35,-2.5 3.4,-2.15 3.8,0.65z"/>
  <path d="m133.55,106.55c-2.2,2.25 -2.05,9.7 0.3,11.8c4.5,4.1 10.15,0.75 10.15,-6.1c0,-4.85 -2,-7.25 -6,-7.25c-1.55,0 -3.55,0.7 -4.45,1.55zm6.25,5.8c0.25,3.05 0,3.65 -1.6,3.65c-2.3,0 -3.25,-2.65 -2.05,-5.85c1.25,-3.35 3.3,-2.1 3.65,2.2z"/>
  <path d="m167.65,106.85c-3.9,4.3 -0.75,13.15 4.7,13.15c2.4,0 5.65,-2.75 5.65,-4.85c0,-1.4 -2.65,-1.55 -3.5,-0.15c-0.95,1.55 -4.5,1.15 -4.5,-0.5c0,-1.1 1.1,-1.5 4,-1.5c3.15,0 4,-0.35 4,-1.8c0,-5.3 -6.85,-8.25 -10.35,-4.35z"/>
  <path d="m191,117.5c0,2.15 0.4,2.6 2.25,2.3c1.5,-0.2 2.25,-1 2.25,-2.3c0,-1.3 -0.75,-2.1 -2.25,-2.3c-1.85,-0.3 -2.25,0.15 -2.25,2.3z"/>
 </g></g></g>
</g>
<defs>
<linearGradient id="paint0_linear_0_1" x1="0" y1="198" x2="1584" y2="198" gradientUnits="userSpaceOnUse">
<stop stop-color="#3D052C"/>
<stop offset="1"/>
</linearGradient>
<linearGradient id="paint1_linear_0_1" x1="323" y1="-224" x2="323" y2="352" gradientUnits="userSpaceOnUse">
<stop stop-color="#28F6F2" stop-opacity="0.4"/>
<stop offset="1" stop-color="#17908E" stop-opacity="0.7"/>
</linearGradient>
<linearGradient id="paint2_linear_0_1" x1="148.5" y1="38" x2="148.5" y2="140" gradientUnits="userSpaceOnUse">
<stop stop-color="white"/>
<stop offset="1" stop-color="#999999"/>
</linearGradient>
<linearGradient id="paint3_linear_0_1" x1="38" y1="260" x2="26" y2="260" gradientUnits="userSpaceOnUse">
<stop stop-color="#D9D9D9"/>
<stop offset="1" stop-color="#737373"/>
</linearGradient>
<linearGradient id="paint4_linear_0_1" x1="38" y1="97.5" x2="26" y2="97.5" gradientUnits="userSpaceOnUse">
<stop stop-color="#D9D9D9"/>
<stop offset="1" stop-color="#737373"/>
</linearGradient>
<linearGradient id="paint5_linear_0_1" x1="27.5" y1="434.5" x2="148.5" y2="787" gradientUnits="userSpaceOnUse">
<stop stop-color="#2E21BC"/>
<stop offset="1" stop-color="#150F56"/>
</linearGradient>
<clipPath id="clip0_0_1">
<rect width="1584" height="396" fill="white"/>
</clipPath>
</defs>
</svg>
